<svg id="visual" viewBox="0 0 900 600" width="900" height="600" xmlns="http://www.w3.org/2000/svg" xmlns:xlink="http://www.w3.org/1999/xlink" version="1.1"><rect x="0" y="0" width="900" height="600" fill="#140021"></rect><path d="M528 0L481 0L481 86L462 86L462 171L475 171L475 257L341 257L341 343L472 343L472 429L456 429L456 514L377 514L377 600L0 600L0 514L0 514L0 429L0 429L0 343L0 343L0 257L0 257L0 171L0 171L0 86L0 86L0 0L0 0Z" fill="#9900ff"></path><path d="M349 0L377 0L377 86L298 86L298 171L284 171L284 257L244 257L244 343L229 343L229 429L277 429L277 514L294 514L294 600L0 600L0 514L0 514L0 429L0 429L0 343L0 343L0 257L0 257L0 171L0 171L0 86L0 86L0 0L0 0Z" fill="#7700c6"></path><path d="M127 0L110 0L110 86L104 86L104 171L85 171L85 257L112 257L112 343L102 343L102 429L133 429L133 514L82 514L82 600L0 600L0 514L0 514L0 429L0 429L0 343L0 343L0 257L0 257L0 171L0 171L0 86L0 86L0 0L0 0Z" fill="#560090"></path></svg>