<svg version="1.2" xmlns="http://www.w3.org/2000/svg" viewBox="0 0 128 128" width="128" height="128">
	<title>Nike-Air-Max-1-svg</title>
	<style>
		.s0 { fill: none } 
		.s1 { fill: #ffffff } 
		.s2 { fill: none;stroke: #ffffff;stroke-linecap: round;stroke-linejoin: round;stroke-width: 1.5 } 
	</style>
	<g id="Layer_2">
		<g id="Nike-Air-Force">
			<path id="Layer" class="s0" d="m0 0h128v128h-128z"/>
			<path id="Layer" fill-rule="evenodd" class="s1" d="m10.3 26.1c8.2 4 14.1 6.9 26.4 18.8 11.8 11.3 30.7 41.8 56.2 60.6q3.4 2.5 7 4.9 3.5 2.3 7.2 4.4 3.7 2.1 7.5 4 3.9 1.9 7.8 3.5c-2.5 3.4-10.1 6.7-21.1 2.2-12.3-4.9-24.8-12.9-50.7-35.7-37.2-33.2-50.1-40.3-49.6-50.5 0.4-5.5 5.4-8.9 9.3-12.2z"/>
			<path id="Layer" fill-rule="evenodd" class="s1" d="m53.3 39.4c0 0 12.1 23.5 21 23.3 7.8-0.1 6.4-13.9 5.3-11.6-0.6 1.3-4.8 3.4-9.2 0.9-5-2.6-18.6-19.3-17.1-12.6z"/>
			<path id="Layer" fill-rule="evenodd" class="s2" d="m115.7 122.8q1.3-0.5 2.4-1.3 1.1-0.7 2-1.8 0.9-1 1.5-2.2 0.7-1.2 1-2.6c0.3-1.1 2.1-7.3-4.2-16.6-5.9-9.2-14.5-16.5-20.5-25.7-5.8-8.9-8.7-19.2-12.3-29.4-2.2-6.4-5.5-13.3-12-15.6-6.8-2.5-15.9 1.3-21.2-3.7-3.9-3.8-3.3-9.8-3.9-15.3"/>
			<path id="Layer" fill-rule="evenodd" class="s2" d="m58.6 91.8c4.7 4.2 9.5 8 14.5 11.8 2.3 1.7 4.8 3.5 7.2 5.3q2.6 1.8 5.3 3.5 2.7 1.7 5.5 3.2 2.7 1.6 5.6 3 2.8 1.4 5.7 2.7"/>
			<path id="Layer" fill-rule="evenodd" class="s2" d="m46.5 2.5c-2.8-2.9-7.8-1-11.3 1.1q-2.3 1.4-4.6 2.9-2.2 1.6-4.4 3.2-2.3 1.5-4.4 3.2-2.2 1.6-4.3 3.4c-5 4-12.3 8.4-15.4 14.1-2.1 3.7-0.4 8.9 1.7 12.2 2.6 4 6.4 6.9 10 9.7 12.8 10.3 24.7 21.7 36.9 32.7"/>
			<path id="Layer" fill-rule="evenodd" class="s2" d="m127 120.7c-13.9-5.4-24.9-11.6-34.6-19.5q-2.7-2.2-5.4-4.5-2.7-2.3-5.3-4.8-2.5-2.4-5-5-2.5-2.5-4.9-5.2c-6.5-7.4-12.6-15.1-18.9-22.8-5.6-7-11.2-14.4-17.9-20.3q-2.2-1.9-4.4-3.6-2.2-1.8-4.5-3.4-2.3-1.6-4.7-3.1-2.4-1.6-4.9-2.9"/>
			<path id="Layer" fill-rule="evenodd" class="s2" d="m69.4 64.7c2.1 1.2 11.8 3.9 13.4 5.4 1.7 1.5 1.2 4.1 0.4 6-0.6 1.5-1.7 3.5-0.4 4.9 1.5 1.5 4.1 1.7 6 1.9q0.8 0.1 1.6 0.3 0.8 0.2 1.6 0.6 0.7 0.3 1.4 0.8 0.7 0.5 1.3 1c4.2 4 8.3 8.2 12.8 11.9q0.7 0.7 1.5 1.3 0.8 0.7 1.6 1.3 0.8 0.6 1.6 1.2 0.8 0.6 1.6 1.2"/>
			<path id="Layer" fill-rule="evenodd" class="s2" d="m6.1 13.1c7-2.1 18.2-3.5 26.6 4.7 11.2 11 18.4 31.4 30.7 42.4"/>
			<path id="Layer" fill-rule="evenodd" class="s2" d="m58.1 31c3.8-5.8 12.6-10.3 17.1-9.1 4.4 1.2 6.7 6.6 5.5 11"/>
			<path id="Layer" fill-rule="evenodd" class="s2" d="m53.7 36.6q0.1 0.4 0.3 0.8 0.2 0.4 0.4 0.7 0.3 0.4 0.5 0.8 0.3 0.3 0.6 0.6c0.7 1.1 1.2 2 1.9 3.1l4.2 6.1q0.2 0.1 0.3 0.3 0.2 0.2 0.3 0.4 0.1 0.2 0.3 0.4 0.1 0.2 0.2 0.4c1 1.3 1.9 2.4 2.8 3.7l1.4 1.8c0.2 0.2 0.5 0.6 0.7 0.8 0.2 0.3 0.5 0.7 0.8 0.8 1.8 1.8 4.3 3.5 6.9 3 4.1-0.7 4.9-4.7 4.8-8.3 0-0.9 0.1-2.4-0.7-3-0.8-0.6-1.6 0.2-2.2 0.8-3.6 3-8.1-0.9-10.6-3.4"/>
		</g>
	</g>
</svg>